<?xml version="1.0" encoding="utf-8"?>
<!-- Generator: Adobe Illustrator 17.0.0, SVG Export Plug-In . SVG Version: 6.00 Build 0)  -->
<!DOCTYPE svg PUBLIC "-//W3C//DTD SVG 1.1//EN" "http://www.w3.org/Graphics/SVG/1.1/DTD/svg11.dtd">
<svg xmlns:xlink="http://www.w3.org/1999/xlink" version="1.1" id="Layer_1" xmlns="http://www.w3.org/2000/svg" x="0px"
     y="0px"
     width="500px" height="500px" viewBox="0 0 500 500" enable-background="new 0 0 500 500" xml:space="preserve">
<path fill="#B4DDE5" d="M248.944,80.631c0.485,0,0.748-0.34,0.795-0.71c0.073-0.348-0.048-0.721-0.432-0.879
	c-0.055-0.027-0.116-0.048-0.183-0.06c-2.603-0.635-4.662-3.777-7.368-3.817c-2.314-0.032-4.035-0.433-5.147-2.65
	c-0.497-0.986-1.004-1.855-1.764-2.653c-1.384-1.453-3.22-1.636-5.064-1.368c-1.331,0.192-2.592,0.161-3.922,0.238
	c-0.738,0.042-2.281-3.14-2.622-3.69c-2.852-4.607-5.579-9.549-11.564-10.184c-5.096-0.541-9.992,1.446-13.515,5.078
	c-2.618-2.444-4.819-5.06-8.832-3.111c-2.2,1.068-3.555,2.517-4.611,4.707c-0.6,1.241-1.106,2.35-2.067,3.371
	c-1.278,1.36-3.829,0.568-5.419,0.553c-2.079-0.022-3.444,1.66-4.621,3.126c-1.444,1.8-2.774,1.934-4.898,1.264
	c-0.67-0.212-1.79-0.228-2.416,0.108c-3.845,2.067-4.753,8.589-9.76,9.01c-1.058,0.089-1.09,1.669,0,1.669
	c30.929,0,61.861,0,92.792,0C248.532,80.631,248.737,80.631,248.944,80.631z"/>
    <path fill="#B4DDE5" d="M326.551,113.106c19.857,0,39.722,0,59.58,0c0.7,0,0.679-0.973,0-1.027
	c-3.215-0.261-3.797-4.279-6.265-5.553c-0.404-0.207-1.123-0.197-1.554-0.067c-1.362,0.414-2.216,0.331-3.144-0.779
	c-0.755-0.903-1.633-1.939-2.968-1.926c-1.02,0.01-2.659,0.498-3.478-0.34c-0.618-0.629-0.943-1.313-1.328-2.078
	c-0.68-1.349-1.549-2.242-2.961-2.901c-2.577-1.2-3.99,0.412-5.67,1.917c-2.263-2.237-5.406-3.462-8.678-3.129
	c-3.844,0.392-5.594,3.437-7.426,6.275c-0.219,0.339-1.209,2.3-1.683,2.274c-0.855-0.048-1.663-0.029-2.519-0.147
	c-1.185-0.164-2.363-0.051-3.251,0.844c-0.487,0.492-0.814,1.027-1.132,1.635c-0.714,1.366-1.82,1.613-3.307,1.632
	c-1.736,0.025-3.059,1.962-4.73,2.353c-0.043,0.008-0.083,0.021-0.118,0.038c-0.245,0.098-0.324,0.327-0.276,0.542
	c0.031,0.229,0.199,0.438,0.51,0.438C326.286,113.106,326.418,113.106,326.551,113.106z"/>
    <path fill="#B4DDE5" d="M136.093,251.154c-0.028-0.009-0.061-0.013-0.093-0.016c-1.891-0.288-3.764-0.663-5.525-1.437
	c-1.518-0.667-2.45-2.123-3.987-2.786c-1.098-0.473-2.559-0.111-3.213-1.227c-0.811-1.38-1.068-3.042-1.814-4.463
	c-1.3-2.468-4.145-3.135-6.677-2.763c-3.055,0.449-4.829,2.914-6.608,5.167c-1.187-1.907-2.892-3.311-5.344-2.86
	c-3.111,0.571-3.963,2.879-5.166,5.389c-3.097-2.231-7.061-1.649-8.061,2.376c-2.169-0.139-5.1,0.706-5.248,3.163
	c-0.019,0.307,0.272,0.564,0.564,0.564c17.007,0,34.012,0,51.018,0c0.342,0,0.521-0.248,0.543-0.514
	C136.541,251.485,136.435,251.209,136.093,251.154z"/>
    <path fill="#B4DDE5" d="M352.599,200.125c0.033,0.417,0.315,0.81,0.855,0.81c26.855,0,53.711,0,80.567,0
	c0.462,0,0.923-0.406,0.893-0.891c-0.234-3.882-4.862-5.216-8.287-4.996c-1.579-6.357-7.84-7.277-12.731-3.751
	c-1.9-3.964-3.244-7.61-8.157-8.512c-3.874-0.712-6.567,1.505-8.44,4.517c-2.81-3.557-5.611-7.45-10.435-8.159
	c-4-0.587-8.493,0.465-10.545,4.364c-1.178,2.244-1.586,4.869-2.865,7.049c-1.035,1.761-3.341,1.189-5.075,1.937
	c-2.43,1.048-3.901,3.347-6.297,4.399c-2.781,1.223-5.738,1.815-8.726,2.27c-0.049,0.005-0.103,0.013-0.146,0.024
	C352.67,199.272,352.502,199.71,352.599,200.125z"/>
    <g>
	<rect x="85.98" y="200.567" fill="none" width="209.258" height="17.318"/>

        <text transform="matrix(1 0 0 1 99.1572 209.7739)" fill="#666766" font-family="'GothamCondensed-Medium'"
              font-size="13.0407" letter-spacing="1">THE REQUESTED PAGE DOES NOT EXIST</text>
        <rect x="60.867" y="113.485" fill="none" width="259.485" height="76.479"/>
        <text transform="matrix(1 0 0 1 93.4985 179.1836)" fill="#666766" font-family="'GothamBold'" font-size="90"
              letter-spacing="2">404</text>
        <rect x="287.576" y="133.493" fill="none" width="97.627" height="17.058"/>

        <text transform="matrix(1 0 0 1 287.5757 149.3579)" fill="#666766" font-family="'GothamBold'"
              font-size="21.7344" letter-spacing="1">ERROR</text>
</g>
    <g>
	<path fill="#A7D6CC" d="M41.227,355.22c-3.515-24.634,31.642-27.043,43.431-27.62c26.676,0,52.117,0.008,79.416-2.314
		c6.085-0.519,12.41-0.156,11.17-7.101c-1.241-4.627-9.928-6.363-10.548-10.993c-2.482-19.095,65.533-21.944,101.133-18.666
		c38.108,3.505,59.36,5.355,43.851,20.98c-12.741,12.836,151.341-6.94,151.341,26.473c0,29.333-41.039,22.235-43.181,42.386
		c-1.993,18.729,26.384,17.824,30.4,31.246c7.446,24.882-37.895,31.141-50.638,32.142c-33.135,2.608-62.283,1.418-87.722-0.896
		c-8.067-0.58-34.337-0.052-35.364-8.681c-1.243-10.413,14.316-6.958,14.811-13.888c0.62-8.678-25.321-8.688-39.077-7.986
		c-26.005,1.322-42.123-0.111-66.942,1.625c-13.029,0.576-54.597,2.312-53.977-16.205c0.193-5.812,10.422-8.394,11.167-12.73
		c1.759-10.219-30.402-9.833-38.468-9.259C80.933,374.892,43.559,371.564,41.227,355.22"/>
</g>
    <g>
	<path fill="#FBA933" d="M382.433,362.443c-3.257-20.266-24.752-38.842-45.253-39.026c-21.139-0.192-40.534,18.863-46.548,37.962
		c-0.452,1.439,0.262,3.323,1.637,4.011c14.343,7.213,30.59,9.449,46.51,9.361c14.007-0.078,29.809-0.621,42.02-8.294
		c1.229-0.772,1.705-1.92,1.661-3.049C382.485,363.1,382.486,362.783,382.433,362.443z"/>
        <g>
		<path fill="#CB7B44" d="M313.132,344.718c0,0.552-0.572,1.121-1.123,1.121c-0.553,0-1.244-0.569-1.244-1.121
			c0-0.552,0.691-1.121,1.244-1.121C312.56,343.597,313.132,344.166,313.132,344.718z"/>
            <path fill="#CB7B44" d="M320.359,345.842c0,0.552-0.568,1.122-1.121,1.122c-0.553,0-1.245-0.57-1.245-1.122
			s0.692-1.124,1.245-1.124C319.791,344.718,320.359,345.29,320.359,345.842z"/>
            <path fill="#CB7B44" d="M372.844,360.45c0,0.552-0.572,1.121-1.125,1.121c-0.553,0-1.243-0.569-1.243-1.121
			c0-0.552,0.69-1.123,1.243-1.123C372.271,359.327,372.844,359.898,372.844,360.45z"/>
            <path fill="#CB7B44" d="M370.476,342.12c0,0.554-0.571,1.124-1.122,1.124c-0.552,0-1.246-0.57-1.246-1.124
			c0-0.552,0.694-1.122,1.246-1.122C369.904,340.998,370.476,341.568,370.476,342.12z"/>
            <path fill="#CB7B44" d="M297.669,361.275c0,0.551-0.569,1.121-1.12,1.121c-0.553,0-1.244-0.57-1.244-1.121
			c0-0.553,0.691-1.124,1.244-1.124C297.1,360.151,297.669,360.723,297.669,361.275z"/>
            <path fill="#CB7B44" d="M360.525,367.774c0,0.552-0.571,1.122-1.122,1.122c-0.554,0-1.246-0.57-1.246-1.122
			c0-0.552,0.692-1.122,1.246-1.122C359.954,366.652,360.525,367.223,360.525,367.774z"/>
            <path fill="#CB7B44" d="M320.951,362.696c0,0.551-0.57,1.121-1.12,1.121c-0.554,0-1.247-0.57-1.247-1.121
			c0-0.551,0.693-1.125,1.247-1.125C320.381,361.571,320.951,362.146,320.951,362.696z"/>
            <path fill="#CB7B44" d="M323.206,338.868c0,0.274-0.288,0.562-0.564,0.562c-0.273,0-0.623-0.288-0.623-0.562
			c0-0.277,0.35-0.562,0.623-0.562C322.918,338.307,323.206,338.591,323.206,338.868z"/>
            <path fill="#CB7B44" d="M316.332,341.56c0,0.274-0.286,0.56-0.56,0.56c-0.278,0-0.624-0.286-0.624-0.56
			c0-0.279,0.346-0.563,0.624-0.563C316.046,340.997,316.332,341.281,316.332,341.56z"/>
            <path fill="#CB7B44" d="M359.935,340.998c0,0.276-0.287,0.562-0.564,0.562c-0.274,0-0.623-0.286-0.623-0.562
			c0-0.275,0.349-0.56,0.623-0.56C359.647,340.438,359.935,340.723,359.935,340.998z"/>
            <path fill="#CB7B44" d="M336.487,362.134c0,0.274-0.288,0.562-0.561,0.562c-0.276,0-0.626-0.287-0.626-0.562
			c0-0.278,0.35-0.562,0.626-0.562C336.199,361.571,336.487,361.855,336.487,362.134z"/>
            <path fill="#CB7B44" d="M307.298,359.327c0,0.275-0.285,0.562-0.56,0.562c-0.276,0-0.624-0.287-0.624-0.562
			c0-0.277,0.348-0.561,0.624-0.561C307.013,358.766,307.298,359.05,307.298,359.327z"/>
            <path fill="#CB7B44" d="M356.731,332.944c0,0.273-0.285,0.56-0.561,0.56c-0.275,0-0.624-0.286-0.624-0.56
			c0-0.278,0.349-0.563,0.624-0.563C356.446,332.381,356.731,332.666,356.731,332.944z"/>
            <path fill="#CB7B44" d="M329.333,372.125c0,0.276-0.285,0.561-0.56,0.561c-0.276,0-0.625-0.285-0.625-0.561
			c0-0.277,0.349-0.561,0.625-0.561C329.048,371.564,329.333,371.848,329.333,372.125z"/>
            <path fill="#CB7B44" d="M304.455,359.889c0,0.275-0.286,0.561-0.56,0.561c-0.277,0-0.624-0.286-0.624-0.561
			c0-0.278,0.347-0.562,0.624-0.562C304.169,359.327,304.455,359.61,304.455,359.889z"/>
            <path fill="#CB7B44" d="M364.076,351.486c0,0.273-0.285,0.562-0.562,0.562c-0.273,0-0.623-0.288-0.623-0.562
			c0-0.278,0.35-0.563,0.623-0.563C363.791,350.923,364.076,351.208,364.076,351.486z"/>
            <path fill="#CB7B44" d="M344.735,352.049c0,0.273-0.287,0.561-0.561,0.561c-0.277,0-0.624-0.287-0.624-0.561
			c0-0.278,0.347-0.562,0.624-0.562C344.448,351.486,344.735,351.771,344.735,352.049z"/>
            <path fill="#CB7B44" d="M332.802,349.086c0,0.275-0.285,0.561-0.562,0.561c-0.275,0-0.623-0.286-0.623-0.561
			c0-0.278,0.348-0.562,0.623-0.562C332.517,348.523,332.802,348.808,332.802,349.086z"/>
            <path fill="#CB7B44" d="M341.18,361.571c0,0.276-0.285,0.562-0.56,0.562c-0.277,0-0.622-0.286-0.622-0.562
			c0-0.275,0.345-0.561,0.622-0.561C340.895,361.011,341.18,361.296,341.18,361.571z"/>
            <path fill="#CB7B44" d="M337.08,329.152c0,0.275-0.285,0.56-0.561,0.56c-0.276,0-0.624-0.284-0.624-0.56
			c0-0.278,0.348-0.563,0.624-0.563C336.795,328.589,337.08,328.874,337.08,329.152z"/>
            <path fill="#CB7B44" d="M321.544,330.276c0,0.273-0.286,0.561-0.561,0.561c-0.274,0-0.623-0.287-0.623-0.561
			c0-0.278,0.349-0.564,0.623-0.564C321.258,329.712,321.544,329.998,321.544,330.276z"/>
	</g>
        <g>
		<path fill="#965931" d="M374.502,287.787c-0.776-0.791-1.554-1.579-2.332-2.37c-0.276-0.281-0.674-0.371-1.01-0.111
			c-17.804,13.805-28.759,35.424-35.841,56.37c-0.099,0.286-0.043,0.666,0.237,0.842c2.683,1.663,5.535,2.444,8.48,1.197
			c0.208-0.035,0.396-0.159,0.483-0.429c0.002-0.008,0.005-0.012,0.007-0.018c0.002-0.005,0.005-0.009,0.005-0.014
			c2.339-7.205,5.182-14.265,8.237-21.192c5.207-11.811,11.467-24.891,21.623-33.268C374.67,288.565,374.78,288.069,374.502,287.787
			z"/>
            <g>
			<defs>
				<path id="SVGID_1_" d="M374.502,287.787c-0.776-0.791-1.554-1.579-2.332-2.37c-0.276-0.281-0.674-0.371-1.01-0.111
					c-17.804,13.805-28.759,35.424-35.841,56.37c-0.099,0.286-0.043,0.666,0.237,0.842c2.683,1.663,5.535,2.444,8.48,1.197
					c0.208-0.035,0.396-0.159,0.483-0.429c0.002-0.008,0.005-0.012,0.007-0.018c0.002-0.005,0.005-0.009,0.005-0.014
					c2.339-7.205,5.182-14.265,8.237-21.192c5.207-11.811,11.467-24.891,21.623-33.268
					C374.67,288.565,374.78,288.069,374.502,287.787z"/>
			</defs>
                <clipPath id="SVGID_2_">
				<use xlink:href="#SVGID_1_" overflow="visible"/>
			</clipPath>
                <g clip-path="url(#SVGID_2_)">
				<g>
					<path fill="#A4673D" d="M336.133,331.518c2.484,4.629,5.326,9.036,8.374,13.313c0.215,0.303,0.662-0.059,0.447-0.358
						c-3.017-4.236-5.836-8.603-8.298-13.188C336.484,330.962,335.957,331.19,336.133,331.518L336.133,331.518z"/>
				</g>
                    <g>
					<path fill="#A4673D" d="M338.798,326.616c2.391,5.902,6.496,10.781,9.788,16.167c0.191,0.316,0.639-0.045,0.447-0.355
						c-3.264-5.345-7.341-10.19-9.712-16.043C339.184,326.042,338.658,326.274,338.798,326.616L338.798,326.616z"/>
				</g>
                    <g>
					<path fill="#A4673D" d="M341.417,320.809c2.763,4.183,4.927,8.7,7.348,13.083c0.177,0.32,0.701,0.091,0.522-0.232
						c-2.441-4.424-4.631-8.985-7.423-13.209C341.661,320.142,341.213,320.501,341.417,320.809L341.417,320.809z"/>
				</g>
                    <g>
					<path fill="#A4673D" d="M345.412,316.057c2.757,3.94,5.011,8.181,7.432,12.324c0.185,0.313,0.713,0.087,0.525-0.233
						c-2.448-4.185-4.725-8.47-7.509-12.448C345.646,315.396,345.201,315.756,345.412,316.057L345.412,316.057z"/>
				</g>
                    <g>
					<path fill="#A4673D" d="M349.184,306.028c1.797,4.998,4.189,9.722,6.666,14.409c0.171,0.327,0.7,0.096,0.523-0.23
						c-2.478-4.689-4.867-9.413-6.665-14.414C349.584,305.446,349.059,305.679,349.184,306.028L349.184,306.028z"/>
				</g>
                    <g>
					<path fill="#A4673D" d="M354.28,298.32c1.678,5.178,4.06,10.062,6.412,14.961c0.161,0.334,0.686,0.1,0.524-0.233
						c-2.352-4.899-4.733-9.785-6.411-14.962C354.69,297.734,354.167,297.97,354.28,298.32L354.28,298.32z"/>
				</g>
                    <g>
					<path fill="#A4673D" d="M358.992,294.033c1.27,4.246,2.379,8.53,4.178,12.595c0.147,0.337,0.673,0.107,0.524-0.233
						c-1.8-4.062-2.909-8.348-4.177-12.594C359.412,293.448,358.888,293.685,358.992,294.033L358.992,294.033z"/>
				</g>
                    <g>
					<path fill="#A4673D" d="M362.82,289.072c1.288,3.781,2.442,7.607,3.733,11.388c0.118,0.352,0.641,0.118,0.524-0.233
						c-1.287-3.78-2.445-7.605-3.733-11.389C363.226,288.489,362.703,288.722,362.82,289.072L362.82,289.072z"/>
				</g>
                    <g>
					<path fill="#A4673D" d="M367.704,284.997c1.03,3.055,2.054,6.113,3.015,9.192c0.109,0.353,0.634,0.118,0.523-0.233
						c-0.96-3.08-1.982-6.136-3.016-9.191C368.111,284.414,367.586,284.648,367.704,284.997L367.704,284.997z"/>
				</g>
                    <g>
					<path fill="#A4673D" d="M331.573,340.765c6.604-0.759,12.902-2.884,19.357-4.381c0.357-0.083,0.27-0.651-0.092-0.569
						c-6.45,1.499-12.753,3.625-19.354,4.383C331.116,340.241,331.208,340.808,331.573,340.765L331.573,340.765z"/>
				</g>
                    <g>
					<path fill="#A4673D" d="M331.305,334.575c7.498-1.736,14.711-4.377,22.005-6.809c0.35-0.118,0.114-0.642-0.235-0.526
						c-7.241,2.415-14.41,5.043-21.86,6.766C330.855,334.09,330.942,334.659,331.305,334.575L331.305,334.575z"/>
				</g>
                    <g>
					<path fill="#A4673D" d="M334.381,327.035c7.562,0.229,14.442-2.672,21.586-4.719c0.35-0.102,0.264-0.668-0.091-0.568
						c-7.083,2.029-13.937,4.943-21.433,4.718C334.076,326.453,334.009,327.026,334.381,327.035L334.381,327.035z"/>
				</g>
                    <g>
					<path fill="#A4673D" d="M338.41,320.932c7.176-1.384,14.239-3.215,21.341-4.929c0.356-0.088,0.27-0.654-0.089-0.566
						c-7.1,1.713-14.168,3.545-21.342,4.929C337.96,320.435,338.046,321.002,338.41,320.932L338.41,320.932z"/>
				</g>
                    <g>
					<path fill="#A4673D" d="M340.95,315.441c7.923-2.184,15.848-4.361,23.813-6.386c0.354-0.092,0.27-0.66-0.091-0.567
						c-7.965,2.026-15.892,4.203-23.814,6.387C340.507,314.973,340.593,315.539,340.95,315.441L340.95,315.441z"/>
				</g>
                    <g>
					<path fill="#A4673D" d="M345.836,307.902c6.178-1.081,12.328-2.318,18.486-3.518c0.36-0.068,0.275-0.638-0.091-0.565
						c-6.157,1.198-12.307,2.433-18.487,3.518C345.382,307.399,345.468,307.966,345.836,307.902L345.836,307.902z"/>
				</g>
                    <g>
					<path fill="#A4673D" d="M350.211,301.463c6.072-1.342,12.277-1.753,18.403-2.756c0.365-0.06,0.273-0.628-0.091-0.566
						c-6.126,1.005-12.33,1.414-18.401,2.755C349.763,300.973,349.85,301.54,350.211,301.463L350.211,301.463z"/>
				</g>
                    <g>
					<path fill="#A4673D" d="M355.715,294.581c5.514,0.005,11.008-0.474,16.516-0.668c0.369-0.013,0.274-0.579-0.092-0.565
						c-5.455,0.19-10.895,0.667-16.358,0.662C355.415,294.01,355.347,294.581,355.715,294.581L355.715,294.581z"/>
				</g>
                    <g>
					<path fill="#A4673D" d="M358.91,290.126c5.624,1.11,11.325,0.914,17.027,0.939c0.366,0.003,0.433-0.568,0.062-0.571
						c-5.703-0.024-11.401,0.173-17.027-0.94C358.61,289.483,358.55,290.053,358.91,290.126L358.91,290.126z"/>
				</g>
			</g>
		</g>
            <path fill="#764C30" d="M380.831,290.332c-0.227,2.019-2.544,3.868-4.561,3.643c-2.015-0.226-4.314-2.591-4.089-4.609
			c0.226-2.018,2.99-3.817,5.007-3.592C379.203,285.999,381.055,288.314,380.831,290.332z"/>
            <path fill="#764C30" d="M368.727,289.701c-0.227,2.018-2.544,3.868-4.56,3.643c-2.016-0.226-4.315-2.593-4.09-4.609
			c0.226-2.019,2.99-3.817,5.007-3.594C367.101,285.367,368.951,287.685,368.727,289.701z"/>
            <g>
			<g>
				<path fill="#748C3C" d="M398.965,283.753c0.836,1.642,0.957,3.598,0.816,5.341c3.829,1.279,7.549,2.912,10.891,4.777
					c0.506-1.119,0.923-2.422,1.011-3.788c0,0,1.126,2.194,1.451,5.248c3.549,2.234,6.53,4.716,8.534,7.271
					c1.75-8.777,0.503-17.321-5.117-22.923c-2.31,1.061-3.538,2.288-3.538,2.288c0.289-1.315,1.083-2.55,2.032-3.623
					c-3.589-2.869-8.604-4.73-15.297-5.098c-1.241,1.244-2.521,2.804-3.628,4.701c0,0-0.17-2.095,0.294-4.709
					c-10.712,0.763-23.259,9.067-26.543,17.434c5.592-5.627,16.752-5.465,27.531-2.319
					C398.825,285.885,398.965,283.753,398.965,283.753z"/>
			</g>
                <g>
				<path fill="#677B35" d="M394.339,278.973c-3.153-0.151-6.19,0.379-8.898,1.235c-2.714,0.86-5.121,2.037-7.176,3.306
					c-4.106,2.554-6.891,5.298-8.395,7.158c1.75-1.627,4.693-4.118,8.814-6.443c4.095-2.273,9.553-4.373,15.608-4.11
					c6.043,0.246,11.326,2.759,15.122,5.516c3.869,2.731,6.486,5.562,8.202,7.233c-1.459-1.891-3.879-4.941-7.711-7.898
					C406.158,281.991,400.684,279.229,394.339,278.973z"/>
			</g>
		</g>
            <g>
			<g>
				<path fill="#748C3C" d="M401.663,271.431c1.59,1.281,2.499,3.087,3.03,4.781c4.829-0.045,9.676,0.283,14.19,0.95
					c0.127-1.224,0.084-2.593-0.354-3.914c0,0,2.139,1.708,3.711,4.486c4.892,0.951,9.239,2.32,12.512,4.077
					c-1.486-8.867-6.269-16.533-14.827-19.985c-2.191,1.759-3.096,3.32-3.096,3.32c-0.194-1.338,0.219-2.765,0.865-4.087
					c-5.186-1.539-11.589-1.653-19.296,0.188c-0.908,1.583-1.739,3.475-2.243,5.631c0,0-1.019-1.925-1.527-4.547
					c-11.801,4.228-22.702,16.183-23.109,25.163c4.097-7.147,16.771-10.648,30.193-11.206
					C402.347,273.49,401.663,271.431,401.663,271.431z"/>
			</g>
                <g>
				<path fill="#677B35" d="M394.546,268.43c-3.62,0.889-6.84,2.384-9.562,4.081c-2.731,1.7-4.984,3.601-6.805,5.47
					c-3.635,3.758-5.693,7.265-6.66,9.515c1.336-2.111,3.676-5.43,7.415-8.976c3.731-3.488,9.072-7.26,16.014-8.992
					c6.927-1.744,13.887-1.102,19.264,0.262c5.45,1.314,9.523,3.132,12.123,4.148c-2.396-1.307-6.334-3.397-11.832-4.939
					C409.097,267.414,401.82,266.595,394.546,268.43z"/>
			</g>
		</g>
            <g>
			<g>
				<path fill="#748C3C" d="M394.468,304.216c-0.165,1.682-0.999,3.116-1.923,4.234c2.201,3.383,4.159,6.938,5.728,10.408
					c0.902-0.447,1.821-1.08,2.535-1.968c0,0-0.212,2.256-1.417,4.585c1.549,3.863,2.561,7.524,2.824,10.601
					c5.43-4.947,8.553-11.683,7.074-19.228c-2.195-0.768-3.676-0.717-3.676-0.717c0.831-0.727,2-1.065,3.201-1.191
					c-1.277-4.328-4.078-8.887-8.813-13.5c-1.499,0.057-3.174,0.302-4.882,0.896c0,0,0.868-1.562,2.441-3.075
					c-8.222-6.449-21.345-8.865-27.704-5.202c6.758-0.26,14.869,7.123,21.292,16.327
					C393.358,305.603,394.468,304.216,394.468,304.216z"/>
			</g>
                <g>
				<path fill="#677B35" d="M393.331,297.887c-2.242-2.157-4.721-3.77-7.11-4.938c-2.399-1.176-4.718-1.927-6.825-2.386
					c-4.216-0.903-7.556-0.814-9.538-0.504c2.053,0.013,5.388,0.2,9.51,1.272c4.076,1.093,9.071,3.195,13.388,7.32
					c4.317,4.108,7.007,9.291,8.486,13.676c1.55,4.415,2.133,8.083,2.603,10.361c-0.176-2.263-0.512-5.953-1.927-10.504
					C400.575,307.682,397.862,302.198,393.331,297.887z"/>
			</g>
		</g>
            <g>
			<g>
				<path fill="#748C3C" d="M343.57,283.737c-1.074,1.303-1.506,2.907-1.646,4.351c-3.953,0.82-7.852,1.94-11.425,3.273
					c-0.314-0.955-0.515-2.053-0.388-3.186c0,0-1.45,1.74-2.254,4.237c-3.83,1.622-7.145,3.485-9.509,5.468
					c-0.319-7.337,2.256-14.301,8.651-18.57c2.092,1.014,3.1,2.103,3.1,2.103c-0.072-1.103-0.654-2.172-1.41-3.11
					c3.97-2.145,9.176-3.371,15.785-3.265c1.02,1.102,2.023,2.462,2.808,4.095c0,0,0.497-1.716,0.46-3.898
					c10.368,1.284,21.333,8.889,23.217,15.983c-4.579-4.978-15.532-5.525-26.59-3.594C343.37,285.501,343.57,283.737,343.57,283.737
					z"/>
			</g>
                <g>
				<path fill="#677B35" d="M348.863,280.084c3.11,0.067,6,0.69,8.514,1.561c2.524,0.873,4.693,1.99,6.502,3.159
					c3.614,2.355,5.901,4.787,7.08,6.412c-1.454-1.448-3.938-3.681-7.604-5.852c-3.649-2.121-8.66-4.183-14.631-4.333
					c-5.955-0.169-11.53,1.58-15.683,3.619c-4.224,2.013-7.235,4.182-9.183,5.455c1.729-1.468,4.585-3.832,8.809-6.033
					C336.808,281.849,342.607,279.906,348.863,280.084z"/>
			</g>
		</g>
            <g>
			<g>
				<path fill="#748C3C" d="M349.159,270.981c-1.529,1.024-2.596,2.668-3.329,4.257c-3.962-0.76-8.007-1.157-11.831-1.166
					c0.107-1.225,0.382-2.565,0.971-3.804c0,0-2.055,1.364-3.832,3.868c-4.191,0.209-8.006,0.913-11.003,2.158
					c2.774-8.51,8.048-15.349,15.688-17.477c1.496,2.055,1.962,3.726,1.962,3.726c0.395-1.288,0.308-2.753,0.008-4.152
					c4.534-0.745,9.817,0.091,15.834,3.049c0.469,1.693,0.823,3.679,0.857,5.877c0,0,1.175-1.746,2.051-4.251
					c8.965,5.912,15.836,19.298,14.6,28.202c-2.118-7.646-11.927-12.972-22.865-15.51
					C348.237,272.907,349.159,270.981,349.159,270.981z"/>
			</g>
                <g>
				<path fill="#677B35" d="M355.537,269.082c2.821,1.411,5.208,3.362,7.148,5.436c1.947,2.08,3.469,4.284,4.638,6.395
					c2.328,4.24,3.409,7.996,3.812,10.355c-0.73-2.276-2.072-5.89-4.527-9.936c-2.456-3.99-6.188-8.494-11.593-11.228
					c-5.389-2.746-11.225-3.145-15.887-2.602c-4.709,0.488-8.378,1.672-10.693,2.287c2.198-0.931,5.803-2.406,10.592-3.106
					C343.752,265.923,349.876,266.197,355.537,269.082z"/>
			</g>
		</g>
            <g>
			<g>
				<path fill="#748C3C" d="M366.362,261.136c-1.575-0.578-3.2-0.454-4.581-0.107c-2.121-3.434-4.506-6.719-6.97-9.62
					c0.771-0.613,1.716-1.166,2.802-1.419c0,0-2.105-0.782-4.685-0.712c-2.823-3.051-5.686-5.541-8.333-7.104
					c6.654-2.725,13.965-2.61,20.111,1.967c-0.209,2.297-0.863,3.601-0.863,3.601c0.994-0.432,1.774-1.33,2.377-2.351
					c3.352,3.011,6.284,7.485,8.477,13.716c-0.664,1.316-1.573,2.71-2.804,3.982c0,0,1.754-0.101,3.751-0.856
					c2.406,10.139-0.809,22.932-6.693,27.043c3.002-5.939-0.283-16.385-5.893-26.105
					C364.666,261.528,366.362,261.136,366.362,261.136z"/>
			</g>
                <g>
				<path fill="#677B35" d="M371.563,264.887c1.014,2.937,1.439,5.849,1.507,8.494c0.067,2.652-0.213,5.058-0.663,7.138
					c-0.919,4.164-2.367,7.115-3.456,8.756c0.829-1.843,2.027-4.91,2.756-9.061c0.693-4.121,0.858-9.501-1.064-15.146
					c-1.908-5.636-5.447-10.281-8.768-13.499c-3.318-3.292-6.358-5.396-8.205-6.801c1.951,1.136,5.12,3.029,8.609,6.258
					C365.762,254.172,369.558,258.964,371.563,264.887z"/>
			</g>
		</g>
            <path fill="#955939" d="M375.082,292.252c-0.226,2.02-2.543,3.869-4.56,3.643c-2.016-0.228-4.313-2.591-4.09-4.609
			c0.228-2.016,2.99-3.817,5.007-3.592C373.458,287.92,375.307,290.235,375.082,292.252z"/>
	</g>
        <g>
		<path fill="#AC6A36" d="M314.448,273.958c8.517,12.638,11.157,29.213,13.05,44.036c1.109,8.693,1.946,17.461,2.17,26.228
			c-0.003,0.005,0,0.012,0,0.017c-0.002,0.009,0,0.015,0.003,0.022c0.006,0.331,0.174,0.527,0.393,0.635
			c2.859,2.352,6.282,2.426,9.806,1.463c0.369-0.103,0.554-0.508,0.542-0.856c-0.97-25.577-6.014-53.173-21.229-74.354
			c-0.284-0.396-0.755-0.428-1.157-0.207c-1.124,0.62-2.248,1.24-3.371,1.861C314.255,273.025,314.215,273.614,314.448,273.958z"/>
            <g>
			<defs>
				<path id="SVGID_3_" d="M314.448,273.958c8.517,12.638,11.157,29.213,13.05,44.036c1.109,8.693,1.946,17.461,2.17,26.228
					c-0.003,0.005,0,0.012,0,0.017c-0.002,0.009,0,0.015,0.003,0.022c0.006,0.331,0.174,0.527,0.393,0.635
					c2.859,2.352,6.282,2.426,9.806,1.463c0.369-0.103,0.554-0.508,0.542-0.856c-0.97-25.577-6.014-53.173-21.229-74.354
					c-0.284-0.396-0.755-0.428-1.157-0.207c-1.124,0.62-2.248,1.24-3.371,1.861C314.255,273.025,314.215,273.614,314.448,273.958z"
                />
			</defs>
                <clipPath id="SVGID_4_">
				<use xlink:href="#SVGID_3_" overflow="visible"/>
			</clipPath>
                <g clip-path="url(#SVGID_4_)">
				<g>
					<path fill="#CC7F49" d="M342.85,333.961c-4.278,4.32-8.887,8.273-13.675,12.019c-0.338,0.268-0.715-0.282-0.379-0.543
						c4.742-3.711,9.308-7.628,13.548-11.906C342.645,333.228,343.153,333.658,342.85,333.961L342.85,333.961z"/>
				</g>
                    <g>
					<path fill="#CC7F49" d="M341.502,327.646c-4.592,5.762-10.754,9.825-16.18,14.721c-0.316,0.287-0.693-0.26-0.379-0.542
						c5.381-4.858,11.501-8.895,16.057-14.61C341.266,326.88,341.772,327.31,341.502,327.646L341.502,327.646z"/>
				</g>
                    <g>
					<path fill="#CC7F49" d="M340.509,320.338c-4.444,3.733-8.329,8.036-12.457,12.101c-0.304,0.299-0.812-0.129-0.505-0.432
						c4.164-4.104,8.095-8.446,12.582-12.214C340.458,319.518,340.835,320.065,340.509,320.338L340.509,320.338z"/>
				</g>
                    <g>
					<path fill="#CC7F49" d="M337.639,313.751c-4.355,3.463-8.25,7.429-12.304,11.228c-0.309,0.292-0.815-0.138-0.506-0.431
						c4.095-3.839,8.031-7.845,12.431-11.343C337.594,312.938,337.972,313.485,337.639,313.751L337.639,313.751z"/>
				</g>
                    <g>
					<path fill="#CC7F49" d="M336.754,301.377c-3.639,4.959-7.848,9.412-12.143,13.801c-0.295,0.304-0.803-0.122-0.504-0.431
						c4.293-4.389,8.5-8.844,12.141-13.802C336.5,300.603,337.008,301.032,336.754,301.377L336.754,301.377z"/>
				</g>
                    <g>
					<path fill="#CC7F49" d="M333.633,291.146c-3.564,5.195-7.818,9.836-12.039,14.494c-0.285,0.318-0.794-0.113-0.505-0.431
						c4.223-4.659,8.473-9.3,12.039-14.494C333.371,290.363,333.873,290.796,333.633,291.146L333.633,291.146z"/>
				</g>
                    <g>
					<path fill="#CC7F49" d="M329.813,284.839c-2.806,4.294-5.445,8.686-8.777,12.604c-0.277,0.325-0.785-0.105-0.505-0.432
						c3.331-3.915,5.973-8.31,8.775-12.601C329.543,284.051,330.045,284.485,329.813,284.839L329.813,284.839z"/>
				</g>
                    <g>
					<path fill="#CC7F49" d="M327.2,278.072c-2.675,3.774-5.215,7.639-7.891,11.412c-0.247,0.349-0.751-0.083-0.504-0.431
						c2.673-3.773,5.214-7.638,7.886-11.41C326.939,277.292,327.446,277.725,327.2,278.072L327.2,278.072z"/>
				</g>
                    <g>
					<path fill="#CC7F49" d="M323.12,271.945c-2.149,3.05-4.291,6.108-6.369,9.208c-0.239,0.357-0.744-0.077-0.509-0.43
						c2.081-3.101,4.224-6.159,6.373-9.209C322.861,271.165,323.366,271.597,323.12,271.945L323.12,271.945z"/>
				</g>
                    <g>
					<path fill="#CC7F49" d="M344.866,345.724c-7.077-3.018-13.371-7.447-20.038-11.233c-0.37-0.209-0.087-0.811,0.285-0.597
						c6.668,3.783,12.962,8.217,20.041,11.229C345.548,345.292,345.258,345.893,344.866,345.724L344.866,345.724z"/>
				</g>
                    <g>
					<path fill="#CC7F49" d="M347.203,338.943c-7.752-4.394-14.89-9.697-22.179-14.798c-0.353-0.247,0.081-0.75,0.429-0.506
						c7.245,5.065,14.338,10.337,22.036,14.704C347.857,338.554,347.574,339.154,347.203,338.943L347.203,338.943z"/>
				</g>
                    <g>
					<path fill="#CC7F49" d="M346.27,329.565c-8.468-2.234-15.148-7.72-22.4-12.342c-0.36-0.226-0.077-0.829,0.284-0.6
						c7.191,4.584,13.841,10.071,22.233,12.288C346.797,329.02,346.682,329.674,346.27,329.565L346.27,329.565z"/>
				</g>
                    <g>
					<path fill="#CC7F49" d="M343.805,321.463c-7.506-3.895-14.748-8.256-22.061-12.492c-0.367-0.214-0.085-0.814,0.286-0.599
						c7.315,4.235,14.556,8.598,22.062,12.493C344.471,321.061,344.185,321.663,343.805,321.463L343.805,321.463z"/>
				</g>
                    <g>
					<path fill="#CC7F49" d="M342.794,314.535c-8.072-5.034-16.153-10.054-24.327-14.925c-0.364-0.215-0.081-0.818,0.288-0.599
						c8.174,4.869,16.252,9.891,24.325,14.922C343.438,314.157,343.157,314.761,342.794,314.535L342.794,314.535z"/>
				</g>
                    <g>
					<path fill="#CC7F49" d="M339.852,304.56c-6.501-3.234-12.918-6.629-19.36-9.983c-0.378-0.2-0.094-0.8,0.287-0.602
						c6.439,3.355,12.857,6.752,19.36,9.987C340.522,304.149,340.239,304.753,339.852,304.56L339.852,304.56z"/>
				</g>
                    <g>
					<path fill="#CC7F49" d="M337.115,295.971c-6.299-3.481-13.048-5.979-19.517-9.112c-0.385-0.185-0.099-0.785,0.289-0.599
						c6.467,3.134,13.218,5.63,19.514,9.113C337.773,295.58,337.488,296.18,337.115,295.971L337.115,295.971z"/>
				</g>
                    <g>
					<path fill="#CC7F49" d="M333.27,286.524c-6.124-1.809-12.06-4.146-18.109-6.174c-0.406-0.136-0.113-0.734,0.288-0.6
						c5.99,2.007,11.873,4.328,17.94,6.12C333.793,285.989,333.68,286.647,333.27,286.524L333.27,286.524z"/>
				</g>
                    <g>
					<path fill="#CC7F49" d="M331.191,280.528c-6.606-0.617-12.868-2.71-19.206-4.559c-0.406-0.118-0.291-0.772,0.117-0.654
						c6.336,1.849,12.601,3.943,19.205,4.562C331.734,279.915,331.613,280.567,331.191,280.528L331.191,280.528z"/>
				</g>
			</g>
		</g>
            <path fill="#764C30" d="M306.798,273.548c-0.413,2.312,1.546,5.127,3.859,5.54c2.312,0.414,5.642-1.456,6.055-3.768
			c0.414-2.314-2.06-5.222-4.373-5.635C310.028,269.272,307.21,271.234,306.798,273.548z"/>
            <path fill="#764C30" d="M320.438,276.829c-0.414,2.312,1.548,5.13,3.86,5.542c2.311,0.413,5.642-1.455,6.057-3.769
			c0.411-2.313-2.062-5.222-4.375-5.636C323.668,272.554,320.85,274.516,320.438,276.829z"/>
            <g>
			<g>
				<path fill="#93B65A" d="M288.836,260.275c-1.466,1.55-2.246,3.679-2.664,5.66c-4.668,0.159-9.335,0.75-13.657,1.721
					c-0.193-1.41-0.227-2.995,0.123-4.541c0,0-1.969,2.067-3.335,5.349c-4.677,1.313-8.799,3.087-11.863,5.263
					c0.945-10.317,5.141-19.391,13.221-23.757c2.213,1.939,3.174,3.704,3.174,3.704c0.112-1.557-0.363-3.188-1.063-4.69
					c4.926-2.004,11.105-2.419,18.654-0.624c0.965,1.79,1.875,3.941,2.48,6.413c0,0,0.875-2.273,1.219-5.325
					c11.64,4.372,22.832,17.715,23.724,28.082c-4.355-8.085-16.793-11.578-29.795-11.635
					C288.29,262.689,288.836,260.275,288.836,260.275z"/>
			</g>
                <g>
				<path fill="#849E45" d="M295.547,256.495c3.543,0.87,6.741,2.456,9.462,4.299c2.732,1.847,5.018,3.945,6.876,6.028
					c3.719,4.185,5.905,8.147,6.964,10.708c-1.408-2.382-3.854-6.115-7.662-10.054c-3.799-3.87-9.166-7.994-15.968-9.695
					c-6.789-1.715-13.479-0.663-18.599,1.145c-5.191,1.76-9.027,4.038-11.482,5.327c2.24-1.615,5.93-4.205,11.157-6.226
					C281.432,255.953,288.418,254.691,295.547,256.495z"/>
			</g>
		</g>
            <g>
			<g>
				<path fill="#93B65A" d="M289.896,245.716c-2.186,0.897-3.79,2.603-4.936,4.307c-5.345-1.638-10.831-2.868-16.06-3.613
					c0.262-1.399,0.761-2.904,1.679-4.228c0,0-2.936,1.191-5.594,3.757c-5.74-0.554-11.019-0.464-15.227,0.409
					c4.565-9.352,12.393-16.286,23.03-17.302c1.855,2.673,2.343,4.704,2.343,4.704c0.656-1.422,0.667-3.141,0.387-4.821
					c6.26-0.001,13.404,1.977,21.35,6.559c0.488,2.057,0.788,4.43,0.636,6.989c0,0,1.767-1.803,3.193-4.545
					c11.705,8.576,19.867,25.427,17.369,35.531c-2.197-9.28-15.109-17.337-29.824-22.372
					C288.459,247.777,289.896,245.716,289.896,245.716z"/>
			</g>
                <g>
				<path fill="#849E45" d="M298.782,244.726c3.726,2.178,6.809,4.897,9.269,7.675c2.472,2.784,4.349,5.636,5.752,8.311
					c2.795,5.366,3.928,9.935,4.264,12.75c-0.791-2.782-2.294-7.234-5.276-12.401c-2.994-5.1-7.679-11.041-14.817-15.247
					c-7.109-4.216-15.048-5.794-21.462-6.048c-6.479-0.334-11.599,0.341-14.819,0.614c3.088-0.662,8.148-1.687,14.757-1.587
					C282.97,238.809,291.312,240.297,298.782,244.726z"/>
			</g>
		</g>
            <g>
			<g>
				<path fill="#93B65A" d="M287.096,284.467c-0.372,1.921,0.079,3.786,0.74,5.333c-3.559,3.027-6.899,6.33-9.784,9.664
					c-0.854-0.793-1.667-1.797-2.166-3.015c0,0-0.504,2.571,0.065,5.551c-2.989,3.777-5.32,7.509-6.624,10.835
					c-4.399-7.275-5.645-15.777-1.523-23.663c2.691-0.133,4.315,0.412,4.315,0.412c-0.683-1.08-1.867-1.84-3.159-2.375
					c2.842-4.384,7.451-8.519,14.224-12.084c1.643,0.557,3.423,1.381,5.123,2.601c0,0-0.449-2.02-1.697-4.212
					c11.241-4.457,26.602-2.818,32.457,3.341c-7.415-2.513-18.846,3.013-29.002,11.115
					C287.868,286.371,287.096,284.467,287.096,284.467z"/>
			</g>
                <g>
				<path fill="#849E45" d="M290.439,277.818c3.196-1.659,6.476-2.634,9.515-3.142c3.048-0.514,5.87-0.585,8.356-0.4
					c4.98,0.383,8.655,1.583,10.755,2.578c-2.282-0.663-6.048-1.551-10.974-1.717c-4.885-0.131-11.12,0.558-17.265,3.718
					c-6.142,3.141-10.835,8.006-13.92,12.384c-3.171,4.39-5.027,8.267-6.296,10.642c0.939-2.452,2.527-6.438,5.595-11.02
					C279.175,286.304,283.99,281.111,290.439,277.818z"/>
			</g>
		</g>
            <g>
			<g>
				<path fill="#93B65A" d="M350.314,278.488c0.766,1.801,0.719,3.722,0.397,5.371c4.118,2.209,8.078,4.734,11.603,7.39
					c0.666-0.958,1.248-2.11,1.479-3.407c0,0,1.036,2.41,1.109,5.443c3.715,3.063,6.776,6.219,8.753,9.198
					c2.768-8.039,2.199-16.612-3.495-23.457c-2.654,0.438-4.127,1.311-4.127,1.311c0.441-1.198,1.439-2.19,2.587-2.985
					c-3.701-3.688-9.074-6.762-16.446-8.819c-1.492,0.889-3.055,2.068-4.46,3.622c0,0,0.011-2.069,0.772-4.476
					c-11.929-1.988-26.601,2.844-31.027,10.097c6.722-4.017,19.058-1.022,30.692,4.76
					C349.957,280.513,350.314,278.488,350.314,278.488z"/>
			</g>
                <g>
				<path fill="#849E45" d="M345.646,272.692c-3.476-0.948-6.886-1.209-9.965-1.069c-3.088,0.138-5.862,0.665-8.255,1.367
					c-4.783,1.424-8.125,3.369-9.967,4.786c2.092-1.128,5.583-2.789,10.365-3.99c4.749-1.154,10.987-1.795,17.661,0.002
					c6.665,1.775,12.278,5.549,16.214,9.178c4.023,3.625,6.655,7.024,8.396,9.076c-1.438-2.197-3.826-5.759-7.791-9.595
					C358.442,278.616,352.646,274.555,345.646,272.692z"/>
			</g>
		</g>
            <g>
			<g>
				<path fill="#93B65A" d="M348.312,262.493c1.359,1.641,2.002,3.813,2.294,5.818c4.647,0.46,9.266,1.351,13.515,2.598
					c0.283-1.392,0.421-2.973,0.173-4.537c0,0,1.83,2.188,2.983,5.552c4.579,1.614,8.579,3.648,11.498,6.016
					c-0.279-10.355-3.878-19.681-11.658-24.559c-2.336,1.789-3.409,3.49-3.409,3.49c-0.008-1.559,0.57-3.159,1.363-4.609
					c-4.788-2.32-10.926-3.132-18.576-1.83c-1.077,1.727-2.122,3.814-2.883,6.242c0,0-0.732-2.324-0.88-5.395
					c-11.893,3.613-23.925,16.208-25.481,26.495c4.866-7.785,17.504-10.473,30.478-9.689
					C348.701,264.934,348.312,262.493,348.312,262.493z"/>
			</g>
                <g>
				<path fill="#849E45" d="M341.86,258.288c-3.597,0.636-6.888,2.016-9.726,3.678c-2.843,1.668-5.259,3.616-7.249,5.573
					c-3.977,3.938-6.414,7.748-7.636,10.235c1.559-2.289,4.236-5.855,8.292-9.539c4.037-3.617,9.662-7.388,16.562-8.645
					c6.881-1.274,13.492,0.205,18.483,2.344c5.069,2.09,8.749,4.61,11.116,6.057c-2.133-1.757-5.648-4.579-10.732-6.934
					C355.977,258.657,349.091,256.947,341.86,258.288z"/>
			</g>
		</g>
            <g>
			<g>
				<path fill="#93B65A" d="M332.46,245.903c1.938-0.122,3.701,0.55,5.118,1.39c3.486-3.111,7.215-5.973,10.902-8.384
					c-0.653-0.933-1.521-1.856-2.644-2.496c0,0,2.596-0.175,5.433,0.752c4.138-2.457,8.135-4.279,11.588-5.143
					c-6.489-5.214-14.639-7.491-22.97-4.435c-0.523,2.62-0.226,4.281-0.226,4.281c-0.959-0.805-1.527-2.06-1.864-3.391
					c-4.709,2.238-9.439,6.239-13.919,12.432c0.304,1.68,0.854,3.523,1.801,5.343c0,0-1.914-0.688-3.883-2.187
					c-6.004,10.462-6.646,25.718-1.469,32.216c-1.378-7.577,5.709-18.09,15.131-27.033C334.214,246.9,332.46,245.903,332.46,245.903
					z"/>
			</g>
                <g>
				<path fill="#849E45" d="M325.454,248.356c-2.092,2.926-3.521,6.018-4.467,8.933c-0.949,2.919-1.429,5.679-1.613,8.136
					c-0.351,4.927,0.288,8.675,0.954,10.857c-0.315-2.319-0.635-6.114-0.077-10.963c0.585-4.801,2.175-10.826,6.166-16.457
					c3.972-5.628,9.428-9.617,14.172-12.096c4.763-2.561,8.831-3.897,11.343-4.848c-2.539,0.619-6.677,1.678-11.612,4.111
					C335.418,238.375,329.627,242.445,325.454,248.356z"/>
			</g>
		</g>
            <path fill="#955939" d="M312.544,277.569c-0.412,2.312,1.549,5.129,3.86,5.543c2.312,0.412,5.645-1.456,6.056-3.77
			c0.414-2.314-2.062-5.221-4.375-5.635C315.773,273.295,312.957,275.256,312.544,277.569z"/>
	</g>
</g>
    <g>
	<g>
		<path fill="#EBF6F3" d="M302.731,376.806c-7.67-2.317-10.993-4.64-12.482-5.847c-0.726-0.638-1.083-0.967-1.235-1.149
			c-0.154-0.181-0.154-0.181-0.154-0.181c-1.88-1.893-2.196-3.965-2.1-5.26c0.006-0.667,0.152-1.152,0.207-1.491
			c0.058-0.339,0.064-0.521,0.019-0.541c-0.045-0.018-0.144,0.128-0.298,0.446c-0.148,0.32-0.398,0.799-0.502,1.516
			c-0.035,0.177-0.072,0.366-0.111,0.565c-0.001,0.205-0.002,0.421-0.003,0.647c0.008,0.226-0.017,0.471,0.024,0.718
			c0.05,0.248,0.102,0.507,0.154,0.776c0.27,1.059,0.832,2.267,1.798,3.346c0,0,0,0,0.172,0.2c0.17,0.201,0.556,0.561,1.339,1.247
			c1.598,1.3,5.087,3.702,12.858,6.047c3.878,1.166,6.845,1.803,9.068,2.271c2.224,0.462,3.718,0.714,4.71,0.893
			c1.991,0.33,1.991,0.33,1.991,0.33c5.491,0.709,8.268,0.744,8.285,0.562c0.022-0.208-2.706-0.636-8.114-1.635c0,0,0,0-1.977-0.328
			c-0.986-0.176-2.47-0.427-4.677-0.887C309.501,378.589,306.559,377.956,302.731,376.806z"/>
	</g>
        <g>
		<path fill="#EBF6F3" d="M363.435,379.6c-9.653,2.078-14.639,2.181-17.086,2.358c-2.465,0.116-2.465,0.116-2.465,0.116
			c-6.758,0.295-10.148-0.061-10.173,0.189c-0.011,0.098,0.825,0.267,2.521,0.501c1.698,0.213,4.261,0.388,7.684,0.396
			c0,0,0,0,2.49-0.115c2.477-0.18,7.509-0.282,17.271-2.385c9.724-2.311,14.233-4.699,16.458-5.81
			c2.204-1.199,2.204-1.199,2.204-1.199c2.892-1.886,4.85-3.605,5.99-4.893c1.108-1.326,1.611-2.011,1.534-2.074
			c-0.241-0.229-2.251,2.654-8.08,6.032c0,0,0,0-2.152,1.171C377.457,374.971,373.045,377.315,363.435,379.6z"/>
	</g>
        <g>
		<path fill="#EBF6F3" d="M373.368,382.71c-3.394,1.297-5.192,1.575-6.075,1.718c-0.887,0.152-0.888,0.13-0.889,0.13
			c-2.423,0.418-3.688,0.371-3.711,0.604c-0.028,0.156,1.238,0.61,3.841,0.476c0,0,0.004,0.023,0.932-0.137
			c0.926-0.148,2.81-0.443,6.299-1.777c3.461-1.398,5.057-2.374,5.874-2.816c0.806-0.463,0.806-0.463,0.806-0.463
			c2.115-1.442,3.006-2.381,2.898-2.528c-0.122-0.172-1.235,0.438-3.451,1.594c0,0,0,0-0.789,0.451
			C378.305,380.392,376.738,381.35,373.368,382.71z"/>
	</g>
        <g>
		<path fill="#EBF6F3" d="M309.605,385.862c-1.332-0.223-2.322-0.419-3.056-0.598c-0.743-0.151-1.225-0.293-1.546-0.387
			c-0.645-0.182-0.645-0.182-0.645-0.182c-1.797-0.391-2.725-0.58-2.806-0.378c-0.067,0.162,0.723,0.725,2.498,1.42
			c0,0,0,0,0.666,0.188c0.331,0.096,0.831,0.242,1.591,0.399c0.756,0.182,1.768,0.383,3.124,0.609
			c2.713,0.42,4.069,0.553,4.746,0.641c0.677,0.08,0.677,0.08,0.677,0.08c3.733,0.151,3.808-0.332,0.127-1.08c0,0,0,0-0.675-0.079
			C313.632,386.407,312.277,386.275,309.605,385.862z"/>
	</g>
        <g>
		<path fill="#EBF6F3" d="M388.161,359.552c-1.015-1.045-1.015-1.045-1.015-1.045c-0.911-0.507-1.246-0.151-0.779,0.758
			c0,0,0,0,0.994,1.023c0.875,1.075,0.875,1.075,0.875,1.075c0.835,0.556,1.275,0.332,0.871-0.651
			C389.107,360.712,389.107,360.712,388.161,359.552z"/>
	</g>
        <g>
		<path fill="#EBF6F3" d="M104.153,352.297c-0.465-0.07-0.913-0.156-1.352-0.206c-0.445-0.024-0.876-0.051-1.293-0.074
			c-0.851,0.077-1.654,0.125-2.349,0.37c-1.421,0.388-2.494,0.982-3.415,1.435c-0.906,0.479-1.659,0.831-2.285,1.118
			c-0.638,0.216-1.135,0.459-1.558,0.516c-0.418,0.082-0.731,0.143-0.965,0.188c-0.235,0.014-0.392,0.022-0.497,0.028
			c-0.209,0.012-0.209,0.012-0.209,0.012c-2.329,0.014-4.143-0.673-5.332-0.961c-1.2-0.337-1.83-0.443-1.857-0.352
			c-0.03,0.096,0.522,0.384,1.663,0.896c0.573,0.253,1.298,0.555,2.201,0.859c0.905,0.29,1.998,0.602,3.335,0.646
			c0,0,0,0,0.245-0.014c0.122-0.008,0.305-0.018,0.58-0.034c0.267-0.052,0.623-0.12,1.097-0.213c0.481-0.071,1.022-0.328,1.723-0.57
			c0.664-0.304,1.454-0.676,2.354-1.15c1.807-0.891,4.188-2.264,7.704-1.426c1.234,0.259,2.469,0.622,3.74,0.962
			c1.279,0.329,2.614,0.558,3.978,0.589l-0.039-0.001c2.275,0.162,4.543,0.101,6.768,0.135c4.927-0.075,7.335,0.68,7.4,0.41
			c0.025-0.095-0.557-0.33-1.766-0.7c-1.215-0.309-3.096-0.703-5.614-0.796c-2.269-0.035-4.499,0.025-6.71-0.133h-0.009l-0.03-0.001
			c-1.235-0.031-2.47-0.237-3.706-0.556C106.717,352.943,105.46,352.57,104.153,352.297z"/>
	</g>
        <g>
		<path fill="#EBF6F3" d="M236.174,305.245c-1.996-0.213-3.678,0.095-5.12,0.391c-1.434,0.331-2.636,0.691-3.646,1.007
			c-2.024,0.643-3.358,0.965-4.256,1.128c-0.897,0.122-1.344,0.166-1.567,0.151c-0.223,0.004-0.223,0.004-0.223,0.004
			c-0.615,0.065-1.177-0.047-1.713-0.069c-0.513-0.139-1.018-0.188-1.446-0.366c-0.425-0.18-0.845-0.286-1.185-0.481
			c-0.347-0.184-0.658-0.351-0.936-0.499c-1.064-0.679-1.61-1.045-1.683-0.962c-0.059,0.063,0.352,0.575,1.356,1.438
			c0.272,0.192,0.578,0.409,0.917,0.648c0.34,0.245,0.778,0.411,1.227,0.645c0.453,0.235,1.002,0.34,1.568,0.529
			c0.587,0.075,1.223,0.232,1.904,0.203c0,0,0,0,0.247-0.003c0.252,0.012,0.741-0.033,1.714-0.166
			c0.956-0.173,2.373-0.52,4.393-1.16c1.014-0.317,2.184-0.666,3.562-0.985c1.367-0.286,3.002-0.565,4.75-0.374
			c1.741,0.257,3.239,0.965,4.567,1.512c1.332,0.57,2.532,1.015,3.612,1.266c1.08,0.236,2.019,0.331,2.799,0.307
			c0.777-0.045,1.391-0.134,1.867-0.238c0.958-0.198,1.409-0.348,1.64-0.408c0.23-0.065,0.23-0.065,0.23-0.065
			c1.236-0.405,2.281-0.754,3.2-0.933c0.913-0.178,1.69-0.228,2.313-0.186c1.245,0.082,1.873,0.292,1.913,0.171
			c0.028-0.06-0.524-0.465-1.842-0.745c-0.657-0.141-1.511-0.183-2.513-0.076c-1.003,0.105-2.135,0.397-3.375,0.725
			c0,0,0,0-0.223,0.064c-0.224,0.059-0.671,0.203-1.559,0.389c-0.888,0.184-2.224,0.398-4.204-0.062
			c-0.988-0.229-2.116-0.644-3.436-1.208C239.698,306.294,238.172,305.545,236.174,305.245z"/>
	</g>
        <g>
		<path fill="#EBF6F3" d="M190.387,345.863c-3.399,0.895-5.879,0.688-7.861,0.449c-1.958-0.165-3.292-0.356-4.195-0.288
			c-1.8,0.022-1.8,0.036-1.8,0.036c-0.611,0.101-1.185,0.195-1.72,0.285c-0.526,0.116-0.998,0.274-1.44,0.396
			c-0.881,0.255-1.573,0.526-2.144,0.728c-1.128,0.373-1.691,0.612-1.672,0.709c0.019,0.097,0.622,0.05,1.827-0.151
			c0.588-0.109,1.327-0.3,2.198-0.465c0.436-0.076,0.904-0.19,1.41-0.263c0.507-0.048,1.05-0.101,1.629-0.155
			c0,0-0.001-0.01,1.703-0.031c0.853-0.069,2.131,0.115,4.099,0.282c1.906,0.247,4.794,0.448,8.204-0.472
			c1.702-0.4,3.158-0.622,4.453-0.624c1.277,0.003,2.431,0.196,3.398,0.296c1.941,0.21,3.248,0.422,4.115,0.533
			c1.739,0.233,1.739,0.233,1.739,0.233c1.205,0.094,2.259,0.174,3.164,0.244c0.908,0.026,1.67-0.002,2.274-0.014
			c1.211-0.036,1.811-0.106,1.811-0.205c0-0.099-0.6-0.226-1.788-0.374c-0.593-0.066-1.333-0.15-2.222-0.25
			c-0.886-0.137-1.919-0.297-3.1-0.478c0,0,0,0-1.734-0.23c-0.871-0.114-2.16-0.322-4.137-0.538c-0.991-0.1-2.113-0.296-3.523-0.303
			C193.683,345.212,192.094,345.459,190.387,345.863z"/>
	</g>
        <g>
		<path fill="#EBF6F3" d="M245.56,376.372c-1.689-0.113-3.191,0.008-4.459,0.191c-1.274,0.179-2.349,0.388-3.262,0.562
			c-1.826,0.352-3.03,0.567-3.835,0.649c-0.805,0.111-1.206,0.105-1.406,0.129c-0.202,0.013-0.202,0.013-0.202,0.013
			c-2.196,0.184-3.843-0.09-4.92-0.352c-1.075-0.275-1.629-0.439-1.674-0.338c-0.037,0.076,0.432,0.421,1.497,0.89
			c1.062,0.452,2.806,0.929,5.148,0.887c0,0,0,0,0.211-0.015c0.21-0.023,0.642-0.019,1.476-0.135c0.84-0.085,2.082-0.308,3.909-0.66
			c1.824-0.312,4.237-0.932,7.454-0.735c1.615,0.083,2.968,0.381,4.174,0.73c1.202,0.35,2.257,0.668,3.183,0.895
			c1.862,0.477,3.2,0.414,4.04,0.416c0.846-0.058,1.273-0.078,1.479-0.111c0.209-0.024,0.209-0.024,0.209-0.024
			c2.277-0.364,3.894-0.722,5.008-0.771c1.105-0.082,1.677-0.045,1.695-0.164c0.018-0.072-0.53-0.31-1.691-0.414
			c-1.163-0.14-2.914,0.062-5.134,0.269c0,0-0.004,0.034-1.606,0.131c-0.804-0.009-1.989,0.061-3.749-0.389
			c-0.884-0.216-1.906-0.523-3.137-0.882C248.743,376.785,247.255,376.459,245.56,376.372z"/>
	</g>
        <g>
		<path fill="#EBF6F3" d="M269.451,339.452c-4.449,0.631-6.64,0.789-7.744,0.781c-1.101,0.028-1.098,0.002-1.098,0.002
			c-3.009,0.046-4.524-0.271-4.58-0.033c-0.047,0.141,1.404,0.859,4.554,1.119c0,0,0.002,0.028,1.144-0.001
			c1.142,0.009,3.435-0.161,7.866-0.792c4.431-0.617,6.632-0.545,7.734-0.539c1.099,0.066,1.099,0.066,1.099,0.066
			c3.018,0.085,4.537,0.383,4.592,0.146c0.043-0.143-1.397-0.837-4.517-1.231c0,0,0,0-1.141-0.067
			C276.228,338.895,273.914,338.828,269.451,339.452z"/>
	</g>
        <g>
		<path fill="#EBF6F3" d="M420.1,340.022c-4.035,0.927-6.035,0.787-7.025,0.682c-0.498-0.038-0.736-0.123-0.86-0.134
			c-0.122-0.023-0.122-0.023-0.122-0.023c-0.686-0.057-1.265-0.222-1.77-0.336c-0.516-0.093-0.923-0.246-1.261-0.348
			c-0.673-0.202-1.043-0.261-1.088-0.173c-0.047,0.087,0.233,0.32,0.858,0.703c0.311,0.191,0.702,0.436,1.222,0.62
			c0.512,0.205,1.109,0.46,1.839,0.603c0,0,0,0,0.133,0.023c0.134,0.014,0.396,0.102,0.933,0.145
			c1.057,0.123,3.294,0.245,7.371-0.699c4.047-0.956,6.048-0.982,7.06-0.998c1.003,0.055,1.003,0.055,1.003,0.055
			c0.694-0.024,1.29,0.074,1.812,0.108c0.523,0.022,0.951,0.115,1.3,0.161c0.698,0.096,1.073,0.097,1.103,0.004
			c0.031-0.093-0.28-0.28-0.954-0.563c-0.338-0.138-0.76-0.323-1.296-0.435c-0.533-0.123-1.156-0.306-1.89-0.359
			c0,0,0,0-1.069-0.057C426.342,339.009,424.145,339.065,420.1,340.022z"/>
	</g>
        <g>
		<path fill="#EBF6F3" d="M344.193,421.889c-3.403,0.075-5.79,0.812-7.565,1.251c-0.881,0.214-1.615,0.392-2.227,0.539
			c-0.61,0.097-1.1,0.174-1.491,0.236c-0.781,0.148-1.178,0.064-1.373,0.1c-0.195,0.005-0.195,0.005-0.195,0.005
			c-1.079,0.133-2.022-0.025-2.84-0.068c-0.826-0.011-1.486-0.232-2.034-0.309c-1.088-0.197-1.659-0.248-1.689-0.154
			c-0.032,0.093,0.477,0.332,1.545,0.716c0.541,0.17,1.194,0.48,2.051,0.583c0.846,0.134,1.834,0.378,2.995,0.318
			c0,0,0,0,0.212-0.006c0.206-0.035,0.641,0.05,1.466-0.106c0.413-0.066,0.931-0.147,1.577-0.25
			c0.625-0.151,1.376-0.333,2.277-0.552c1.761-0.444,4.137-1.145,7.248-1.217c1.545,0.049,2.786,0.549,3.935,1.056
			c1.156,0.523,2.266,0.814,3.176,1.004c1.825,0.338,3.031,0.634,3.863,0.664c1.645,0.156,1.645,0.156,1.645,0.156
			c2.263,0.061,3.945-0.024,5.062-0.123c1.118-0.095,1.676-0.194,1.675-0.293c0-0.099-0.559-0.195-1.674-0.285
			c-1.117-0.088-2.789-0.175-4.986-0.383c0,0,0,0-1.597-0.153c-0.805-0.025-1.981-0.317-3.759-0.644
			c-0.883-0.189-1.855-0.435-2.978-0.943C347.395,422.535,345.929,421.938,344.193,421.889z"/>
	</g>
        <g>
		<path fill="#EBF6F3" d="M393.64,406.941c-2.466,0.312-4.272,0.814-5.6,1.114c-1.337,0.32-2.218,0.472-2.812,0.575
			c-1.186,0.151-1.186,0.151-1.186,0.151c-1.621,0.229-2.862,0.304-3.695,0.318c-0.834,0.042-1.263,0.114-1.273,0.211
			c-0.011,0.098,0.397,0.222,1.239,0.367c0.839,0.17,2.125,0.271,3.844,0.184c0,0,0,0,1.243-0.158
			c0.611-0.105,1.544-0.268,2.886-0.591c1.356-0.306,3.104-0.791,5.5-1.095c2.398-0.34,4.14-0.234,5.5-0.026
			c1.346,0.177,2.243,0.344,2.846,0.45c1.203,0.217,1.203,0.217,1.203,0.217c3.348,0.476,5.084,0.337,5.083,0.156
			c0.004-0.215-1.632-0.463-4.89-1.226c0,0,0,0-1.206-0.218c-0.604-0.105-1.513-0.276-2.898-0.458
			C398.062,406.7,396.097,406.586,393.64,406.941z"/>
	</g>
        <g>
		<path fill="#EBF6F3" d="M182.471,391.933c-4.896,0.829-7.34,0.76-8.538,0.603c-0.606-0.034-0.903-0.084-1.05-0.121
			c-0.148-0.026-0.148-0.026-0.148-0.026c-0.411-0.056-0.796-0.106-1.156-0.155c-0.356-0.066-0.678-0.161-0.983-0.228
			c-0.306-0.069-0.586-0.135-0.841-0.192c-0.247-0.083-0.47-0.159-0.668-0.226c-0.799-0.264-1.234-0.354-1.281-0.267
			c-0.046,0.086,0.295,0.352,1.05,0.798c0.19,0.109,0.401,0.241,0.646,0.362c0.255,0.102,0.536,0.213,0.842,0.332
			c0.309,0.112,0.641,0.254,1.01,0.366c0.376,0.087,0.777,0.182,1.206,0.282c0,0,0,0,0.158,0.029
			c0.158,0.038,0.475,0.091,1.115,0.128c1.267,0.166,3.874,0.227,8.813-0.613c4.917-0.867,7.349-1.096,8.574-1.099
			c0.611-0.039,0.915-0.018,1.067-0.015c0.152,0.007,0.152,0.007,0.152,0.007c3.341-0.067,5.006,0.399,5.072,0.146
			c0.053-0.118-1.545-0.992-5.055-1.233c0,0,0,0-0.159-0.004c-0.16-0.004-0.479-0.026-1.112,0.014
			C189.917,390.821,187.371,391.067,182.471,391.933z"/>
	</g>
</g>
    <path fill="#A7D6CC" d="M263.286,431.216c-0.064-7.804-14.84-9.694-26.84-7.441s-7.333,16.253,9,15.92
	C261.78,439.361,263.32,435.361,263.286,431.216z"/>
    <path fill="#A7D6CC" d="M454.113,380.695c-0.043-7.804-9.947-9.694-17.99-7.441c-8.043,2.253-4.916,16.253,6.032,15.92
	C453.103,388.841,454.136,384.841,454.113,380.695z"/>
    <path fill="#A7D6CC" d="M155.748,304.985c-0.072-7.804-16.651-9.694-30.115-7.441c-13.463,2.253-8.229,16.253,10.098,15.92
	C154.059,313.131,155.787,309.131,155.748,304.985z"/>
    <path fill="#333333" d="M315.348,271.982c0,0-3.187,12.385-1.557,13.58c1.489,1.092,3.078-1.702,3.078-1.702
	s-0.29,4.997,2.607,4.925c2.897-0.072,2.535-4.925,2.535-4.925s1.159,2.607,2.97,1.883c1.811-0.724-1.738-14.196-1.956-14.123
	S315.348,271.982,315.348,271.982z"/>
    <g>
	<path fill="#242424" d="M325.254,281.198c-0.593-4.153-2.089-9.625-2.228-9.579c-0.217,0.072-7.677,0.362-7.677,0.362
		s-1.268,4.93-1.795,8.869c0.542-1.084,1.506-2.558,2.628-2.242c1.456,0.409,1.083,2.875,0.923,3.666
		c0.199-0.827,0.966-3.452,2.662-3.177c1.82,0.295,2.081,2.95,2.114,3.45c-0.024-0.503-0.106-3.188,0.928-3.287
		C323.547,279.19,324.558,280.008,325.254,281.198z"/>
</g>
    <path fill="#90582A" d="M331.5,276.979c0,0-21.076-0.027-21.457-0.054c-0.38-0.027-0.407-0.272-0.679-0.299
	c-0.272-0.027-0.326,0-0.57-0.244c-0.244-0.244-0.543-0.054-0.652-0.217c-0.109-0.163,0.163-0.38,0.38-0.435
	c0,0,9.506,0.163,12.711,0.109c3.205-0.054,8.909-0.19,9.18-0.136c0.272,0.054,0.027,0.407,0.353,0.462
	c0.326,0.054,0.435,0.272,0.652,0.435"/>
    <path fill="#79471E" d="M331.418,276.599c-0.217-0.163-0.326-0.38-0.652-0.435c-0.19,0.163-0.109,0.38-0.299,0.38
	s-2.281,0.136-2.988,0.136c-0.706,0-16.432-0.054-16.894-0.054s-0.625-0.299-0.978-0.272c-0.353,0.027-0.815,0.027-0.815,0.027
	c0.244,0.244,0.299,0.217,0.57,0.244c0.272,0.027,0.299,0.272,0.679,0.299c0.38,0.027,21.457,0.054,21.457,0.054"/>
    <path fill="#F59F1F" d="M316.887,275.585c0,0-0.688,0.326-0.833,0.978c-0.145,0.652,0.097,1.095,0.353,1.095
	c0.19,0,0.272-0.426,0.272-0.426s0.1,0.416,0.317,0.416s0.299-0.344,0.299-0.344s0.109,0.407,0.462,0.344
	c0.239-0.043-0.145-0.978,0.543-1.593C318.988,275.44,316.887,275.585,316.887,275.585z"/>
    <path fill="#F18021" d="M318.3,276.056c0.688-0.616-1.412-0.471-1.412-0.471s-0.489,0.233-0.729,0.697
	c0.131-0.095,0.279-0.163,0.403-0.118c0.299,0.109,0.109,0.625,0.109,0.625s0.299-0.462,0.489-0.407s0.19,0.462,0.19,0.462
	s0.217-0.435,0.326-0.407c0.072,0.018,0.144,0.333,0.184,0.647C317.877,276.764,317.95,276.369,318.3,276.056z"/>
    <path fill="#F59F1F" d="M321.962,275.585c0,0,0.688,0.326,0.833,0.978c0.145,0.652-0.097,1.095-0.353,1.095
	c-0.19,0-0.272-0.426-0.272-0.426s-0.1,0.416-0.317,0.416s-0.299-0.344-0.299-0.344s-0.109,0.407-0.462,0.344
	c-0.239-0.043,0.145-0.978-0.543-1.593C319.861,275.44,321.962,275.585,321.962,275.585z"/>
    <path fill="#F18021" d="M320.549,276.056c-0.688-0.616,1.412-0.471,1.412-0.471s0.489,0.233,0.729,0.697
	c-0.131-0.095-0.279-0.163-0.403-0.118c-0.299,0.109-0.109,0.625-0.109,0.625s-0.299-0.462-0.489-0.407
	c-0.19,0.054-0.19,0.462-0.19,0.462s-0.217-0.435-0.326-0.407c-0.072,0.018-0.144,0.333-0.184,0.647
	C320.972,276.764,320.899,276.369,320.549,276.056z"/>
    <path fill="#333333" d="M313.32,246.826c6.7-0.19,9.393,0.97,10.278,4.963c0.885,3.994,6.639,17.222,1.18,22.238
	c-5.459,5.016-12.575,0.75-13.819-2.901c-1.524-4.475,1.77-8.163,1.869-16.634C312.876,250.39,313.32,246.826,313.32,246.826z"/>
    <path fill="#FFFFFF" d="M319.221,251.307c-2.311-3.726-5.751-3.336-6.029-3.298c-0.135,1.381-0.333,3.817-0.364,6.482
	c-0.097,8.385-3.324,12.084-1.911,16.498c2.693-0.301,6.167-1.163,7.713-3.553C321.336,263.257,321.631,255.192,319.221,251.307z"/>
    <path fill="#FFC655" d="M319.221,251.307c-2.311-3.726-5.751-3.336-6.029-3.298c-0.135,1.381-0.333,3.817-0.364,6.482
	c0,0,4.041,1.023,7.153-1.592C319.768,252.317,319.515,251.781,319.221,251.307z"/>
    <path fill="#EF5B25" d="M298.575,257.408c0,0,5.838,1.196,14.04,0.707c0,0,0.942-0.852,1.231-3.033s-1.72-4.558-2.1-4.646
	c-0.38-0.088-8.888,2.173-8.98,1.884C302.675,252.032,298.575,257.408,298.575,257.408z"/>
    <path fill="#F59F1F" d="M313.34,246.825c0,0-9.923-0.435-13.616,2.825c-3.694,3.259-2.39,8.184-2.39,8.184s9.995-3.694,16.513-2.752
	C313.847,255.082,314.861,250.374,313.34,246.825z"/>
    <path fill="#333333" d="M298.955,250.436c-2.728,3.208-1.621,7.398-1.621,7.398s2.295-0.848,5.403-1.628
	C303.076,252.386,300.503,250.949,298.955,250.436z"/>
    <path fill="#F18021" d="M306.242,251.832c-7.894,1.444-8.909,6.002-8.909,6.002l0,0l0,0c0,0,9.995-3.694,16.513-2.752
	c0,0,0.367-1.708,0.327-3.841C312.375,251.119,309.773,251.187,306.242,251.832z"/>
    <path fill="#242424" d="M297.393,257.812c0.037-0.014,0.093-0.033,0.164-0.059c0.004-0.001,0.008-0.003,0.012-0.004
	c0.024-0.009,0.05-0.018,0.078-0.027c0,0,0.001,0,0.001,0c0.728-0.255,2.66-0.906,5.089-1.516c0.117-1.317-0.112-2.35-0.525-3.16
	c-4.232,1.907-4.878,4.788-4.878,4.788s0.02-0.007,0.056-0.02C297.391,257.813,297.392,257.813,297.393,257.812z"/>
    <path fill="#242424" d="M324.573,255.116c0.582,2.874,0.747,7.441-0.804,11.636c-2.332,6.31-7.957,7.275-11.62,6.335
	c2.549,2.918,8.147,5.057,12.629,0.939C329.155,270.005,326.323,260.704,324.573,255.116z"/>
    <circle fill="#333333" cx="316.405" cy="250.818" r="0.991"/>
    <circle fill="#FFFFFF" cx="316.011" cy="250.361" r="0.231"/>
</svg>
